<?xml version="1.0" encoding="utf-8"?>
<svg height="209" viewBox="0 0 188 209" width="188" xmlns="http://www.w3.org/2000/svg"><path d="m0 0h3.16v3.16h-3.16z"/><path d="m0 20.56h3.16v3.19h-3.16z"/><path d="m0 41.19h3.16v3.16h-3.16z"/><path d="m0 61.75h3.16v3.16h-3.16z"/><path d="m0 82.31h3.16v3.19h-3.16z"/><path d="m0 102.94h3.16v3.12h-3.16z"/><path d="m0 123.5h3.16v3.19h-3.16z"/><path d="m0 144.09h3.16v3.16h-3.16z"/><path d="m0 164.66h3.16v3.16h-3.16z"/><path d="m0 185.25h3.16v3.19h-3.16z"/><path d="m0 205.84h3.16v3.16h-3.16z"/><path d="m20.53 0h3.16v3.16h-3.16z"/><path d="m20.53 20.56h3.16v3.19h-3.16z"/><path d="m20.53 41.19h3.16v3.16h-3.16z"/><path d="m20.53 61.75h3.16v3.16h-3.16z"/><path d="m20.53 82.31h3.16v3.19h-3.16z"/><path d="m20.53 102.94h3.16v3.12h-3.16z"/><path d="m20.53 123.5h3.16v3.19h-3.16z"/><path d="m20.53 144.09h3.16v3.16h-3.16z"/><path d="m20.53 164.66h3.16v3.16h-3.16z"/><path d="m20.53 185.25h3.16v3.19h-3.16z"/><path d="m20.53 205.84h3.16v3.16h-3.16z"/><path d="m41.06 0h3.16v3.16h-3.16z"/><path d="m41.06 20.56h3.16v3.19h-3.16z"/><path d="m41.06 41.19h3.16v3.16h-3.16z"/><path d="m41.06 61.75h3.16v3.16h-3.16z"/><path d="m41.06 82.31h3.16v3.19h-3.16z"/><path d="m41.06 102.94h3.16v3.12h-3.16z"/><path d="m41.06 123.5h3.16v3.19h-3.16z"/><path d="m41.06 144.09h3.16v3.16h-3.16z"/><path d="m41.06 164.66h3.16v3.16h-3.16z"/><path d="m41.06 185.25h3.16v3.19h-3.16z"/><path d="m41.06 205.84h3.16v3.16h-3.16z"/><path d="m61.62 0h3.16v3.16h-3.16z"/><path d="m61.62 20.56h3.16v3.19h-3.16z"/><path d="m61.62 41.19h3.16v3.16h-3.16z"/><path d="m61.62 61.75h3.16v3.16h-3.16z"/><path d="m61.62 82.31h3.16v3.19h-3.16z"/><path d="m61.62 102.94h3.16v3.12h-3.16z"/><path d="m61.62 123.5h3.16v3.19h-3.16z"/><path d="m61.62 144.09h3.16v3.16h-3.16z"/><path d="m61.62 164.66h3.16v3.16h-3.16z"/><path d="m61.62 185.25h3.16v3.19h-3.16z"/><path d="m61.62 205.84h3.16v3.16h-3.16z"/><path d="m82.16 0h3.16v3.16h-3.16z"/><path d="m82.16 20.56h3.16v3.19h-3.16z"/><path d="m82.16 41.19h3.16v3.16h-3.16z"/><path d="m82.16 61.75h3.16v3.16h-3.16z"/><path d="m82.16 82.31h3.16v3.19h-3.16z"/><path d="m82.16 102.94h3.16v3.12h-3.16z"/><path d="m82.16 123.5h3.16v3.19h-3.16z"/><path d="m82.16 144.09h3.16v3.16h-3.16z"/><path d="m82.16 164.66h3.16v3.16h-3.16z"/><path d="m82.16 185.25h3.16v3.19h-3.16z"/><path d="m82.16 205.84h3.16v3.16h-3.16z"/><path d="m102.69 0h3.16v3.16h-3.16z"/><path d="m102.69 20.56h3.16v3.19h-3.16z"/><path d="m102.69 41.19h3.16v3.16h-3.16z"/><path d="m102.69 61.75h3.16v3.16h-3.16z"/><path d="m102.69 82.31h3.16v3.19h-3.16z"/><path d="m102.69 102.94h3.16v3.12h-3.16z"/><path d="m102.69 123.5h3.16v3.19h-3.16z"/><path d="m102.69 144.09h3.16v3.16h-3.16z"/><path d="m102.69 164.66h3.16v3.16h-3.16z"/><path d="m102.69 185.25h3.16v3.19h-3.16z"/><path d="m102.69 205.84h3.16v3.16h-3.16z"/><path d="m123.22 0h3.16v3.16h-3.16z"/><path d="m123.22 20.56h3.16v3.19h-3.16z"/><path d="m123.22 41.19h3.16v3.16h-3.16z"/><path d="m123.22 61.75h3.16v3.16h-3.16z"/><path d="m123.22 82.31h3.16v3.19h-3.16z"/><path d="m123.22 102.94h3.16v3.12h-3.16z"/><path d="m123.22 123.5h3.16v3.19h-3.16z"/><path d="m123.22 144.09h3.16v3.16h-3.16z"/><path d="m123.22 164.66h3.16v3.16h-3.16z"/><path d="m123.22 185.25h3.16v3.19h-3.16z"/><path d="m123.22 205.84h3.16v3.16h-3.16z"/><path d="m143.78 0h3.16v3.16h-3.16z"/><path d="m143.78 20.56h3.16v3.19h-3.16z"/><path d="m143.78 41.19h3.16v3.16h-3.16z"/><path d="m143.78 61.75h3.16v3.16h-3.16z"/><path d="m143.78 82.31h3.16v3.19h-3.16z"/><path d="m143.78 102.94h3.16v3.12h-3.16z"/><path d="m143.78 123.5h3.16v3.19h-3.16z"/><path d="m143.78 144.09h3.16v3.16h-3.16z"/><path d="m143.78 164.66h3.16v3.16h-3.16z"/><path d="m143.78 185.25h3.16v3.19h-3.16z"/><path d="m143.78 205.84h3.16v3.16h-3.16z"/><path d="m164.31 0h3.16v3.16h-3.16z"/><path d="m164.31 20.56h3.16v3.19h-3.16z"/><path d="m164.31 41.19h3.16v3.16h-3.16z"/><path d="m164.31 61.75h3.16v3.16h-3.16z"/><path d="m164.31 82.31h3.16v3.19h-3.16z"/><path d="m164.31 102.94h3.16v3.12h-3.16z"/><path d="m164.31 123.5h3.16v3.19h-3.16z"/><path d="m164.31 144.09h3.16v3.16h-3.16z"/><path d="m164.31 164.66h3.16v3.16h-3.16z"/><path d="m164.31 185.25h3.16v3.19h-3.16z"/><path d="m164.31 205.84h3.16v3.16h-3.16z"/><path d="m184.84 0h3.16v3.16h-3.16z"/><path d="m184.84 20.56h3.16v3.19h-3.16z"/><path d="m184.84 41.19h3.16v3.16h-3.16z"/><path d="m184.84 61.75h3.16v3.16h-3.16z"/><path d="m184.84 82.31h3.16v3.19h-3.16z"/><path d="m184.84 102.94h3.16v3.12h-3.16z"/><path d="m184.84 123.5h3.16v3.19h-3.16z"/><path d="m184.84 144.09h3.16v3.16h-3.16z"/><path d="m184.84 164.66h3.16v3.16h-3.16z"/><path d="m184.84 185.25h3.16v3.19h-3.16z"/><path d="m184.84 205.84h3.16v3.16h-3.16z"/></svg>