<?xml version="1.0" encoding="utf-8"?>
<svg xmlns="http://www.w3.org/2000/svg" xmlns:xlink="http://www.w3.org/1999/xlink" width="317" height="277.313" viewBox="0 0 317 277.313"><defs><linearGradient id="a" x1="0.5" x2="0.5" y2="1" gradientUnits="objectBoundingBox"><stop offset="0" stop-color="#e5e9f2" stop-opacity="0.243"/><stop offset="1" stop-color="#737579" stop-opacity="0"/></linearGradient></defs><path d="M0-9.906v-79.25q0-65.01,29.719-107.73,30.957-43.959,90.395-60.057a14.149,14.149,0,0,1,12.692,2.477,13.846,13.846,0,0,1,5.882,11.764v21.051a14.487,14.487,0,0,1-2.786,8.358,12.79,12.79,0,0,1-7.12,5.263Q64.391-184.5,64.391-118.875h44.578a28.66,28.66,0,0,1,21.051,8.668,28.66,28.66,0,0,1,8.668,21.051v79.25a28.66,28.66,0,0,1-8.668,21.051,28.66,28.66,0,0,1-21.051,8.668H29.719A28.66,28.66,0,0,1,8.668,11.145,28.66,28.66,0,0,1,0-9.906ZM208.031,19.813h79.25a28.66,28.66,0,0,0,21.051-8.668A28.66,28.66,0,0,0,317-9.906v-79.25a28.66,28.66,0,0,0-8.668-21.051,28.66,28.66,0,0,0-21.051-8.668H242.7q0-65.629,64.391-89.156a12.79,12.79,0,0,0,7.12-5.263A14.487,14.487,0,0,0,317-221.652V-242.7a13.846,13.846,0,0,0-5.882-11.764,14.149,14.149,0,0,0-12.692-2.477q-59.437,16.1-90.395,60.057-29.719,42.721-29.719,107.73v79.25a28.66,28.66,0,0,0,8.668,21.051A28.66,28.66,0,0,0,208.031,19.813Z" transform="translate(0 257.5)" fill="url(#a)"/></svg>